# xmcd
#
# Track frame offsets:
# 150
# 17904
# 34317
# 43558
# 62236
# 77311
# 93251
# 112526
# 121485
# 145931
#
# Disc length: 2139 seconds
#
# Revision: 1
# Processed by: cddbd v1.5.1PL0 Copyright (c) Steve Scherf et al.
# Submitted via: CedeCatalogueitor 2.6.0.6 http://personales.ya.com/cdcatalogueitor
#
DISCID=7708590a
DTITLE=Bill Withers - Bill Withers' Greatest Hits 
DYEAR=1981
DGENRE=
TTITLE0=Just The Two Of Us
TTITLE1=Use Me
TTITLE2=Ain't No Sunshine
TTITLE3=Lovely Day
TTITLE4=I Want To Spend The Noght
TTITLE5=Soul Shadows
TTITLE6=Lean On Me
TTITLE7=Grandma's Hands
TTITLE8=Hello Like Before
TTITLE9=Who Is He What Is He To You
EXTD=
EXTT0=
EXTT1=
EXTT2=
EXTT3=
EXTT4=
EXTT5=
EXTT6=
EXTT7=
EXTT8=
EXTT9=
PLAYORDER=
